<svg id="Layer_1" data-name="Layer 1" xmlns="http://www.w3.org/2000/svg" viewBox="0 0 227 227.67"><defs><style>.cls-1{fill:#074ba9;}.cls-2{fill:#109d49;}</style></defs><title>white-p-finalist-small</title><path class="cls-1" d="M126.8,108.55a36.75,36.75,0,0,0,15.6-8.74q16-14.53,16-38.72a63.28,63.28,0,0,0-4.66-24.58,45.47,45.47,0,0,0-13.31-18.22,42.3,42.3,0,0,0-18.09-8.87H85.87v101.5h16Q118.05,110.92,126.8,108.55Z"/><path class="cls-1" d="M163.61,9.42a56.14,56.14,0,0,1,11.13,6.75q23.2,17.64,23.2,47.05,0,29.9-23.52,43.78-12.25,7.19-29.74,8.66-5.55.5-26.79.49h-32V174.8q0,16.66,1.88,24.75a27.67,27.67,0,0,0,6.94,13.31,28.74,28.74,0,0,0,4,3.41h118V9.42Z"/><path class="cls-2" d="M44.7,20.42a26.78,26.78,0,0,0-10.78-9.73,30.16,30.16,0,0,0-3.09-1.27h-21V216.27H37.33a28.66,28.66,0,0,0,3.94-3.41,26.37,26.37,0,0,0,7-13.23q1.79-8,1.79-24.83V54.4a144.71,144.71,0,0,0-1.22-21.65A33.54,33.54,0,0,0,44.7,20.42Z"/></svg>